<svg xmlns="http://www.w3.org/2000/svg" viewBox="0 0 180 180">
  <rect width="180" height="180" rx="40" fill="#0f1f2c"/>
  <path d="M36 109c0-24 18-42 41-49-8 8-11 17-11 26 0 9 3 16 9 21 6-4 10-10 13-16 9 6 15 16 15 28 0 18-14 32-33 32s-34-14-34-32z" fill="#ff9600"/>
  <path d="M77 109c0-10 6-18 14-24-3 6-3 10-3 15 0 4 1 8 4 11 5-3 8-7 10-11 5 3 9 9 9 18 0 12-9 21-20 21s-19-9-19-21z" fill="#ffc800"/>
  <text x="108" y="108" font-family="Arial, Helvetica, sans-serif" font-size="38" font-weight="800" fill="#58cc02">P</text>
  <text x="132" y="108" font-family="Arial, Helvetica, sans-serif" font-size="38" font-weight="800" fill="#ffffff">M</text>
</svg>
